PendotL-Regular.glyphspackage
{
glyphname = A;
layers = (
{
layerId = m01;
shapes = (
{
closed = 0;
nodes = (
(1310,0,l),
(730,1600,l),
(150,0,l)
);
},
{
closed = 0;
nodes = (
(370,600,l),
(470,600,o),
(990,600,o),
(1090,600,c)
);
}
);
width = 1460;
}
);
unicode = 65;
}
{
glyphname = B;
layers = (
{
background = {
shapes = (
{
closed = 0;
nodes = (
(255,1600,l),
(355,1600,o),
(499,1600,o),
(599,1600,cs),
(855,1600,o),
(1100,1507,o),
(1100,1227,cs),
(1100,947,o),
(855,820,o),
(600,820,cs),
(500,820,o),
(355,820,o),
(255,820,c)
);
},
{
closed = 0;
nodes = (
(250,1600,l),
(250,1500,o),
(250,100,o),
(250,0,c)
);
},
{
closed = 0;
nodes = (
(599,780,l),
(855,780,o),
(1100,687,o),
(1100,407,cs),
(1100,127,o),
(855,0,o),
(600,0,cs),
(500,0,o),
(355,0,o),
(255,0,c)
);
}
);
};
layerId = m01;
shapes = (
{
closed = 0;
nodes = (
(255,1600,l),
(355,1600,o),
(519,1600,o),
(619,1600,cs),
(885,1600,o),
(1130,1507,o),
(1130,1227,cs),
(1130,947,o),
(885,820,o),
(620,820,cs),
(520,820,o),
(355,820,o),
(255,820,c)
);
},
{
closed = 0;
nodes = (
(250,1600,l),
(250,1500,o),
(250,100,o),
(250,0,c)
);
},
{
closed = 0;
nodes = (
(679,820,l),
(945,820,o),
(1190,717,o),
(1190,427,cs),
(1190,137,o),
(945,0,o),
(680,0,cs),
(580,0,o),
(355,0,o),
(255,0,c)
);
}
);
width = 1390;
}
);
unicode = 66;
}
{
glyphname = C;
layers = (
{
layerId = m01;
shapes = (
{
closed = 0;
nodes = (
(1275,1359,l),
(1155,1515,o),
(990,1600,o),
(750,1600,cs),
(465,1600,o),
(180,1367,o),
(180,817,cs),
(180,267,o),
(465,0,o),
(750,0,cs),
(990,0,o),
(1145,105,o),
(1290,293,c)
);
}
);
width = 1460;
}
);
unicode = 67;
}
{
glyphname = G;
layers = (
{
background = {
shapes = (
{
closed = 0;
nodes = (
(1275,1359,l),
(1155,1515,o),
(990,1600,o),
(750,1600,cs),
(465,1600,o),
(180,1367,o),
(180,817,cs),
(180,267,o),
(465,0,o),
(750,0,cs),
(990,0,o),
(1145,105,o),
(1290,293,c)
);
},
{
closed = 0;
nodes = (
(520,600,l),
(620,600,o),
(1140,600,o),
(1240,600,c)
);
}
);
};
layerId = m01;
shapes = (
{
closed = 0;
nodes = (
(1275,1359,l),
(1155,1515,o),
(990,1600,o),
(750,1600,cs),
(465,1600,o),
(180,1367,o),
(180,817,cs),
(180,267,o),
(465,0,o),
(770,0,cs),
(1095,0,o),
(1290,269,o),
(1290,536,cs),
(1290,586,o),
(1290,700,o),
(1290,750,c)
);
},
{
closed = 0;
nodes = (
(770,750,l),
(870,750,o),
(1180,750,o),
(1280,750,c)
);
}
);
width = 1470;
}
);
unicode = 71;
}
{
glyphname = J;
layers = (
{
layerId = m01;
shapes = (
{
closed = 0;
nodes = (
(960,1600,l),
(960,1433,o),
(960,800,o),
(960,634,cs),
(960,133,o),
(768,0,o),
(570,0,cs),
(388,0,o),
(265,100,o),
(180,283,c)
);
}
);
width = 1210;
}
);
unicode = 74;
}
{
glyphname = L;
layers = (
{
layerId = m01;
shapes = (
{
ref = _c.stemLA;
},
{
closed = 0;
nodes = (
(250,0,l),
(350,0,o),
(1030,0,o),
(1130,0,c)
);
}
);
width = 1380;
}
);
unicode = 76;
}
{
glyphname = N;
layers = (
{
layerId = m01;
shapes = (
{
ref = _c.stemLA;
},
{
pos = (1040,0);
ref = _c.stemLA;
},
{
closed = 0;
nodes = (
(250,1600,l),
(1290,0,l)
);
}
);
width = 1540;
}
);
unicode = 78;
}
{
glyphname = O;
layers = (
{
layerId = m01;
shapes = (
{
closed = 0;
nodes = (
(752,1600,l),
(435,1600,o),
(180,1367,o),
(180,817,cs),
(180,267,o),
(435,0,o),
(750,0,cs),
(1065,0,o),
(1320,267,o),
(1320,817,cs),
(1320,1367,o),
(1065,1600,o),
(749,1600,cs)
);
}
);
width = 1500;
}
);
unicode = 79;
}
{
glyphname = Q;
layers = (
{
layerId = m01;
shapes = (
{
ref = O;
},
{
closed = 0;
nodes = (
(820,470,l),
(1320,-300,l)
);
}
);
width = 1500;
}
);
unicode = 81;
}
{
glyphname = T;
layers = (
{
layerId = m01;
shapes = (
{
pos = (500,0);
ref = _c.stemLA;
},
{
closed = 0;
nodes = (
(170,1600,l),
(270,1600,o),
(1230,1600,o),
(1330,1600,c)
);
}
);
width = 1500;
}
);
unicode = 84;
}
{
glyphname = e;
layers = (
{
layerId = m01;
shapes = (
{
closed = 0;
nodes = (
(920,176,l),
(823,63,o),
(720,0,o),
(560,0,cs),
(370,0,o),
(180,160,o),
(180,490,cs),
(180,820,o),
(370,960,o),
(560,960,cs),
(740,960,o),
(900,860,o),
(900,620,cs),
(900,570,o),
(850,540,o),
(800,540,cs),
(700,540,o),
(300,540,o),
(200,540,cs)
);
}
);
width = 1110;
}
);
unicode = 101;
}
{
glyphname = g;
layers = (
{
layerId = m01;
shapes = (
{
closed = 0;
nodes = (
(920,960,l),
(920,860,o),
(920,60,o),
(920,-40,cs),
(920,-410,o),
(695,-500,o),
(560,-500,cs),
(425,-500,o),
(310,-440,o),
(240,-330,c)
);
},
{
ref = _c.bowlL;
}
);
width = 1150;
}
);
unicode = 103;
}
{
glyphname = m;
layers = (
{
layerId = m01;
shapes = (
{
closed = 0;
nodes = (
(850,0,l),
(850,100,o),
(850,450,o),
(850,550,cs),
(850,850,o),
(785,960,o),
(630,960,cs),
(490,960,o),
(338,845,o),
(250,550,c)
);
},
{
closed = 0;
nodes = (
(1450,0,l),
(1450,100,o),
(1450,450,o),
(1450,550,cs),
(1450,850,o),
(1385,960,o),
(1230,960,cs),
(1090,960,o),
(938,845,o),
(850,550,c)
);
},
{
ref = _c.stemL;
}
);
width = 1675;
}
);
unicode = 109;
}
{
glyphname = q;
layers = (
{
layerId = m01;
shapes = (
{
closed = 0;
nodes = (
(920,960,l),
(920,860,o),
(920,10,o),
(920,-90,cs),
(920,-270,o),
(935,-400,o),
(960,-500,cs)
);
},
{
ref = _c.bowlL;
}
);
width = 1150;
}
);
unicode = 113;
}
{
glyphname = r;
layers = (
{
layerId = m01;
shapes = (
{
closed = 0;
nodes = (
(870,660,l),
(870,840,o),
(780,960,o),
(640,960,cs),
(500,960,o),
(358,845,o),
(250,550,c)
);
},
{
ref = _c.stemL;
}
);
width = 970;
}
);
unicode = 114;
}
{
glyphname = w;
layers = (
{
layerId = m01;
shapes = (
{
closed = 0;
nodes = (
(150,960,l),
(460,0,l),
(770,960,l),
(1080,0,l),
(1390,960,l)
);
}
);
width = 1540;
}
);
unicode = 119;
}
{
glyphname = y;
layers = (
{
layerId = m01;
shapes = (
{
closed = 0;
nodes = (
(925,960,l),
(592,-45,ls),
(483,-375,o),
(402,-500,o),
(277,-500,cs),
(162,-500,o),
(116,-437,o),
(50,-330,c)
);
},
{
closed = 0;
nodes = (
(150,960,l),
(600,0,l)
);
}
);
width = 1075;
}
);
unicode = 121;
}
{
glyphname = z;
layers = (
{
layerId = m01;
shapes = (
{
closed = 0;
nodes = (
(190,960,l),
(880,960,l),
(170,0,l),
(900,0,l)
);
}
);
width = 1070;
}
);
unicode = 122;
}
{
glyphname = dotaccentcomb;
layers = (
{
layerId = m01;
shapes = (
{
closed = 1;
nodes = (
(322,1250,o),
(330,1258,o),
(330,1270,cs),
(330,1282,o),
(322,1290,o),
(310,1290,cs),
(298,1290,o),
(290,1282,o),
(290,1270,cs),
(290,1258,o),
(298,1250,o),
(310,1250,cs)
);
}
);
width = 620;
}
);
unicode = 775;
}
{
export = 0;
glyphname = _c.stemLA;
layers = (
{
layerId = m01;
shapes = (
{
closed = 0;
nodes = (
(250,1600,l),
(250,1500,o),
(250,100,o),
(250,0,c)
);
}
);
width = 500;
}
);
}
{
export = 0;
glyphname = _c.stemLD;
layers = (
{
layerId = m01;
shapes = (
{
closed = 0;
nodes = (
(250,-500,l),
(250,-400,o),
(250,450,o),
(250,550,cs),
(250,730,o),
(235,860,o),
(210,960,cs)
);
}
);
width = 500;
}
);
}
{
export = 0;
glyphname = _c.stemRA;
layers = (
{
layerId = m01;
shapes = (
{
closed = 0;
nodes = (
(250,1600,l),
(250,1500,o),
(250,510,o),
(250,410,cs),
(250,230,o),
(265,100,o),
(290,0,cs)
);
}
);
width = 500;
}
);
}
